{"asset":{"version":"2.0","generator":"Blockbench 4.11.1 glTF exporter"},"scenes":[{"nodes":[14],"name":"blockbench_export"}],"scene":0,"nodes":[{"rotation":[0,-0.13052619222005157,0,0.9914448613738104],"translation":[0.001016664887952626,-1.2120249654672453,0.11608994416612187],"name":"Corpo","mesh":0},{"translation":[0,-3.0625,0.3125],"name":"Sombra","mesh":1},{"rotation":[0.6112433739439508,-0.14266130229084553,0.10862206834914312,0.7708635008260863],"translation":[-0.37499999999999994,0.4375,0.875],"name":"Olho1","mesh":2},{"rotation":[0.14287984153489758,-0.6155683340922007,0.7675506689426975,0.10736362303654355],"translation":[0.4999999999999999,0.4375,0.875],"name":"Olho2","mesh":3},{"translation":[-0.001016664887952626,1.2120249654672453,-0.11608994416612187],"name":"Olho","children":[2,3]},{"rotation":[-0.12715935816631452,0.15266965586468098,0.008334464663583542,0.980027045804177],"translation":[-0.022182030085566937,3.1496895268006764,-0.2865030177782885],"name":"Bone","mesh":4},{"rotation":[0.595458531204163,-0.16494743439586781,0.12656861800983885,0.7760166663400221],"translation":[0.052165228543999104,2.510350003053671,0.49904251089226037],"name":"Cabeca","mesh":5},{"translation":[0.001016664887952626,-1.2120249654672453,0.11608994416612187],"name":"CabecaALL","children":[4,5,6]},{"translation":[-0.375,-2.682459677419355,0.21471774193548382],"name":"Pe1","mesh":6},{"translation":[0.375,-2.682459677419355,0.21471774193548382],"name":"Pe2","mesh":7},{"name":"Pe","children":[8,9]},{"rotation":[0.021768177691161177,-0.0014267617450561055,-0.06538756505649783,0.9976214598368016],"translation":[-0.9854541550386091,-1.552409178388006,-8.190102636606356e-18],"name":"Braco1","mesh":8},{"rotation":[-0.10583923678549047,0.993490450245468,0.04189110741626161,0.004462773483067358],"translation":[1.0145458449613909,-1.552409178388006,-9.118464285331071e-18],"name":"Braco2","mesh":9},{"name":"Braco","children":[11,12]},{"children":[0,1,7,10,13]}],"bufferViews":[{"buffer":0,"byteOffset":0,"byteLength":7152,"target":34962,"byteStride":12},{"buffer":0,"byteOffset":7152,"byteLength":7152,"target":34962,"byteStride":12},{"buffer":0,"byteOffset":14304,"byteLength":4768,"target":34962,"byteStride":8},{"buffer":0,"byteOffset":19072,"byteLength":1776,"target":34963},{"buffer":0,"byteOffset":20848,"byteLength":432,"target":34962,"byteStride":12},{"buffer":0,"byteOffset":21280,"byteLength":432,"target":34962,"byteStride":12},{"buffer":0,"byteOffset":21712,"byteLength":288,"target":34962,"byteStride":8},{"buffer":0,"byteOffset":22000,"byteLength":72,"target":34963},{"buffer":0,"byteOffset":22072,"byteLength":48,"target":34962,"byteStride":12},{"buffer":0,"byteOffset":22120,"byteLength":48,"target":34962,"byteStride":12},{"buffer":0,"byteOffset":22168,"byteLength":32,"target":34962,"byteStride":8},{"buffer":0,"byteOffset":22200,"byteLength":12,"target":34963},{"buffer":0,"byteOffset":22212,"byteLength":48,"target":34962,"byteStride":12},{"buffer":0,"byteOffset":22260,"byteLength":48,"target":34962,"byteStride":12},{"buffer":0,"byteOffset":22308,"byteLength":32,"target":34962,"byteStride":8},{"buffer":0,"byteOffset":22340,"byteLength":12,"target":34963},{"buffer":0,"byteOffset":22352,"byteLength":2424,"target":34962,"byteStride":12},{"buffer":0,"byteOffset":24776,"byteLength":2424,"target":34962,"byteStride":12},{"buffer":0,"byteOffset":27200,"byteLength":1616,"target":34962,"byteStride":8},{"buffer":0,"byteOffset":28816,"byteLength":528,"target":34963},{"buffer":0,"byteOffset":29344,"byteLength":12228,"target":34962,"byteStride":12},{"buffer":0,"byteOffset":41572,"byteLength":12228,"target":34962,"byteStride":12},{"buffer":0,"byteOffset":53800,"byteLength":8152,"target":34962,"byteStride":8},{"buffer":0,"byteOffset":61952,"byteLength":960,"target":34963},{"buffer":0,"byteOffset":62912,"byteLength":1224,"target":34963},{"buffer":0,"byteOffset":64136,"byteLength":620,"target":34963},{"buffer":0,"byteOffset":64756,"byteLength":2880,"target":34962,"byteStride":12},{"buffer":0,"byteOffset":67636,"byteLength":2880,"target":34962,"byteStride":12},{"buffer":0,"byteOffset":70516,"byteLength":1920,"target":34962,"byteStride":8},{"buffer":0,"byteOffset":72436,"byteLength":720,"target":34963},{"buffer":0,"byteOffset":73156,"byteLength":2880,"target":34962,"byteStride":12},{"buffer":0,"byteOffset":76036,"byteLength":2880,"target":34962,"byteStride":12},{"buffer":0,"byteOffset":78916,"byteLength":1920,"target":34962,"byteStride":8},{"buffer":0,"byteOffset":80836,"byteLength":720,"target":34963},{"buffer":0,"byteOffset":81556,"byteLength":6720,"target":34962,"byteStride":12},{"buffer":0,"byteOffset":88276,"byteLength":6720,"target":34962,"byteStride":12},{"buffer":0,"byteOffset":94996,"byteLength":4480,"target":34962,"byteStride":8},{"buffer":0,"byteOffset":99476,"byteLength":840,"target":34963},{"buffer":0,"byteOffset":100316,"byteLength":720,"target":34963},{"buffer":0,"byteOffset":101036,"byteLength":3600,"target":34962,"byteStride":12},{"buffer":0,"byteOffset":104636,"byteLength":3600,"target":34962,"byteStride":12},{"buffer":0,"byteOffset":108236,"byteLength":2400,"target":34962,"byteStride":8},{"buffer":0,"byteOffset":110636,"byteLength":840,"target":34963}],"buffers":[{"byteLength":111476,"uri":"data:application/octet-stream;base64,"}],"accessors":[{"bufferView":0,"componentType":5126,"count":596,"max":[0.9897388815879822,0.649524986743927,0.5818592309951782],"min":[-1.050552248954773,-0.725475013256073,-0.7404197454452515],"type":"VEC3"},{"bufferView":1,"componentType":5126,"count":596,"max":[1,1,1],"min":[-1,-1,-1],"type":"VEC3"},{"bufferView":2,"componentType":5126,"count":596,"max":[0.6484375,0.59375],"min":[0,0],"type":"VEC2"},{"bufferView":3,"componentType":5123,"count":888,"max":[595],"min":[0],"type":"SCALAR"},{"bufferView":4,"componentType":5126,"count":36,"max":[1.5625,0,1.5625],"min":[-1.5625,0,-1.5625],"type":"VEC3"},{"bufferView":5,"componentType":5126,"count":36,"max":[0,1,0],"min":[0,1,0],"type":"VEC3"},{"bufferView":6,"componentType":5126,"count":36,"max":[0.78125,0.78125],"min":[0,0],"type":"VEC2"},{"bufferView":7,"componentType":5123,"count":36,"max":[35],"min":[0],"type":"SCALAR"},{"bufferView":8,"componentType":5126,"count":4,"max":[0.3125,2.7755575615628914e-17,0.3125],"min":[-0.3125,2.7755575615628914e-17,-0.3125],"type":"VEC3"},{"bufferView":9,"componentType":5126,"count":4,"max":[0,1,0],"min":[0,1,0],"type":"VEC3"},{"bufferView":10,"componentType":5126,"count":4,"max":[0.625,0.625],"min":[0,0],"type":"VEC2"},{"bufferView":11,"componentType":5123,"count":6,"max":[3],"min":[0],"type":"SCALAR"},{"bufferView":12,"componentType":5126,"count":4,"max":[0.3125,2.7755575615628914e-17,0.3125],"min":[-0.3125,2.7755575615628914e-17,-0.3125],"type":"VEC3"},{"bufferView":13,"componentType":5126,"count":4,"max":[0,1,0],"min":[0,1,0],"type":"VEC3"},{"bufferView":14,"componentType":5126,"count":4,"max":[0.625,0.625],"min":[0,0],"type":"VEC2"},{"bufferView":15,"componentType":5123,"count":6,"max":[3],"min":[0],"type":"SCALAR"},{"bufferView":16,"componentType":5126,"count":202,"max":[0.5588512420654297,0.4448280930519104,0.7338086366653442],"min":[-0.6601138114929199,-0.46971359848976135,-0.5765861868858337],"type":"VEC3"},{"bufferView":17,"componentType":5126,"count":202,"max":[0.9749916195869446,1,0.9853108525276184],"min":[-0.9807231426239014,-1,-0.966985285282135],"type":"VEC3"},{"bufferView":18,"componentType":5126,"count":202,"max":[0.84375,0.84095299243927],"min":[0.0014591176295652986,0],"type":"VEC2"},{"bufferView":19,"componentType":5123,"count":264,"max":[201],"min":[0],"type":"SCALAR"},{"bufferView":20,"componentType":5126,"count":1019,"max":[1.0412349700927734,0.6339974403381348,1.6979060173034668],"min":[-1.4818141460418701,-1.8142317533493042,-0.5699650049209595],"type":"VEC3"},{"bufferView":21,"componentType":5126,"count":1019,"max":[0.9982147216796875,1,1],"min":[-0.9715262055397034,-0.993308961391449,-1],"type":"VEC3"},{"bufferView":22,"componentType":5126,"count":1019,"max":[0.647445023059845,0.6385350823402405],"min":[0,0],"type":"VEC2"},{"bufferView":23,"componentType":5123,"count":480,"max":[347],"min":[0],"type":"SCALAR"},{"bufferView":24,"componentType":5123,"count":612,"max":[785],"min":[348],"type":"SCALAR"},{"bufferView":25,"componentType":5123,"count":309,"max":[1018],"min":[786],"type":"SCALAR"},{"bufferView":26,"componentType":5126,"count":240,"max":[0.25,0.6199596524238586,0.5977822542190552],"min":[-0.25,-0.31754031777381897,-0.4022177457809448],"type":"VEC3"},{"bufferView":27,"componentType":5126,"count":240,"max":[1,1,0.9965457320213318],"min":[-1,-1,-0.9965457320213318],"type":"VEC3"},{"bufferView":28,"componentType":5126,"count":240,"max":[0.5183658003807068,0.547309398651123],"min":[0,0],"type":"VEC2"},{"bufferView":29,"componentType":5123,"count":360,"max":[239],"min":[0],"type":"SCALAR"},{"bufferView":30,"componentType":5126,"count":240,"max":[0.25,0.6199596524238586,0.5977822542190552],"min":[-0.25,-0.31754031777381897,-0.4022177457809448],"type":"VEC3"},{"bufferView":31,"componentType":5126,"count":240,"max":[1,1,0.9965457320213318],"min":[-1,-1,-0.9965457320213318],"type":"VEC3"},{"bufferView":32,"componentType":5126,"count":240,"max":[0.5183658003807068,0.547309398651123],"min":[0,0],"type":"VEC2"},{"bufferView":33,"componentType":5123,"count":360,"max":[239],"min":[0],"type":"SCALAR"},{"bufferView":34,"componentType":5126,"count":560,"max":[0.34969571232795715,0.46753859519958496,0.5808724761009216],"min":[-0.18899893760681152,-0.44779902696609497,-0.36834222078323364],"type":"VEC3"},{"bufferView":35,"componentType":5126,"count":560,"max":[0.9756296277046204,0.9905012249946594,1],"min":[-0.9756296277046204,-0.9905012249946594,-1],"type":"VEC3"},{"bufferView":36,"componentType":5126,"count":560,"max":[0.8139601945877075,0.8033655881881714],"min":[0,0],"type":"VEC2"},{"bufferView":37,"componentType":5123,"count":420,"max":[299],"min":[0],"type":"SCALAR"},{"bufferView":38,"componentType":5123,"count":360,"max":[559],"min":[300],"type":"SCALAR"},{"bufferView":39,"componentType":5126,"count":300,"max":[0.26136937737464905,0.46753859519958496,0.16302825510501862],"min":[-0.18899893760681152,-0.44779902696609497,-0.16302825510501862],"type":"VEC3"},{"bufferView":40,"componentType":5126,"count":300,"max":[0.9295380115509033,0.9796621799468994,1],"min":[-0.9594405293464661,-0.9505736231803894,-1],"type":"VEC3"},{"bufferView":41,"componentType":5126,"count":300,"max":[0.8139601945877075,0.8033655881881714],"min":[0,0],"type":"VEC2"},{"bufferView":42,"componentType":5123,"count":420,"max":[299],"min":[0],"type":"SCALAR"}],"materials":[{"pbrMetallicRoughness":{"metallicFactor":0,"roughnessFactor":1,"baseColorTexture":{"index":0}},"alphaMode":"MASK","alphaCutoff":0.05,"doubleSided":true},{"pbrMetallicRoughness":{"metallicFactor":0,"roughnessFactor":1,"baseColorTexture":{"index":1}},"alphaMode":"MASK","alphaCutoff":0.05,"doubleSided":true},{"pbrMetallicRoughness":{"metallicFactor":0,"roughnessFactor":1,"baseColorTexture":{"index":2}},"alphaMode":"MASK","alphaCutoff":0.05,"doubleSided":true},{"pbrMetallicRoughness":{"metallicFactor":0,"roughnessFactor":1,"baseColorTexture":{"index":3}},"alphaMode":"MASK","alphaCutoff":0.05,"doubleSided":true},{"pbrMetallicRoughness":{"metallicFactor":0,"roughnessFactor":1,"baseColorTexture":{"index":4}},"alphaMode":"MASK","alphaCutoff":0.05,"doubleSided":true},{"pbrMetallicRoughness":{"metallicFactor":0,"roughnessFactor":1,"baseColorTexture":{"index":5}},"alphaMode":"MASK","alphaCutoff":0.05,"doubleSided":true},{"pbrMetallicRoughness":{"metallicFactor":0,"roughnessFactor":1,"baseColorTexture":{"index":6}},"alphaMode":"MASK","alphaCutoff":0.05,"doubleSided":true},{"pbrMetallicRoughness":{"metallicFactor":0,"roughnessFactor":1,"baseColorTexture":{"index":7}},"alphaMode":"MASK","alphaCutoff":0.05,"doubleSided":true},{"pbrMetallicRoughness":{"metallicFactor":0,"roughnessFactor":1,"baseColorTexture":{"index":8}},"alphaMode":"MASK","alphaCutoff":0.05,"doubleSided":true},{"pbrMetallicRoughness":{"metallicFactor":0,"roughnessFactor":1,"baseColorTexture":{"index":9}},"alphaMode":"MASK","alphaCutoff":0.05,"doubleSided":true}],"textures":[{"sampler":0,"source":0,"name":"Corpo"},{"sampler":1,"source":1,"name":"Sombra"},{"sampler":2,"source":2,"name":"Olho"},{"sampler":3,"source":3,"name":"bone"},{"sampler":4,"source":4,"name":"Oculos"},{"sampler":5,"source":5,"name":"Cabelo"},{"sampler":6,"source":6,"name":"cabeca"},{"sampler":7,"source":7,"name":"Pe"},{"sampler":8,"source":8,"name":"Braco"},{"sampler":9,"source":9,"name":"Lanterna"}],"samplers":[{"magFilter":9728,"minFilter":9728,"wrapS":33071,"wrapT":33071},{"magFilter":9728,"minFilter":9728,"wrapS":33071,"wrapT":33071},{"magFilter":9728,"minFilter":9728,"wrapS":33071,"wrapT":33071},{"magFilter":9728,"minFilter":9728,"wrapS":33071,"wrapT":33071},{"magFilter":9728,"minFilter":9728,"wrapS":33071,"wrapT":33071},{"magFilter":9728,"minFilter":9728,"wrapS":33071,"wrapT":33071},{"magFilter":9728,"minFilter":9728,"wrapS":33071,"wrapT":33071},{"magFilter":9728,"minFilter":9728,"wrapS":33071,"wrapT":33071},{"magFilter":9728,"minFilter":9728,"wrapS":33071,"wrapT":33071},{"magFilter":9728,"minFilter":9728,"wrapS":33071,"wrapT":33071}],"images":[{"mimeType":"image/png","uri":"data:image/png;base64,"},{"mimeType":"image/png","uri":"data:image/png;base64,"},{"mimeType":"image/png","uri":"data:image/png;base64,"},{"mimeType":"image/png","uri":"data:image/png;base64,"},{"mimeType":"image/png","uri":"data:image/png;base64,"},{"mimeType":"image/png","uri":"data:image/png;base64,"},{"mimeType":"image/png","uri":"data:image/png;base64,"},{"mimeType":"image/png","uri":"data:image/png;base64,"},{"mimeType":"image/png","uri":"data:image/png;base64,"},{"mimeType":"image/png","uri":"data:image/png;base64,"}],"meshes":[{"primitives":[{"mode":4,"attributes":{"POSITION":0,"NORMAL":1,"TEXCOORD_0":2},"indices":3,"material":0}]},{"primitives":[{"mode":4,"attributes":{"POSITION":4,"NORMAL":5,"TEXCOORD_0":6},"indices":7,"material":1}]},{"primitives":[{"mode":4,"attributes":{"POSITION":8,"NORMAL":9,"TEXCOORD_0":10},"indices":11,"material":2}]},{"primitives":[{"mode":4,"attributes":{"POSITION":12,"NORMAL":13,"TEXCOORD_0":14},"indices":15,"material":2}]},{"primitives":[{"mode":4,"attributes":{"POSITION":16,"NORMAL":17,"TEXCOORD_0":18},"indices":19,"material":3}]},{"primitives":[{"mode":4,"attributes":{"POSITION":20,"NORMAL":21,"TEXCOORD_0":22},"indices":23,"material":4},{"mode":4,"attributes":{"POSITION":20,"NORMAL":21,"TEXCOORD_0":22},"indices":24,"material":5},{"mode":4,"attributes":{"POSITION":20,"NORMAL":21,"TEXCOORD_0":22},"indices":25,"material":6}]},{"primitives":[{"mode":4,"attributes":{"POSITION":26,"NORMAL":27,"TEXCOORD_0":28},"indices":29,"material":7}]},{"primitives":[{"mode":4,"attributes":{"POSITION":30,"NORMAL":31,"TEXCOORD_0":32},"indices":33,"material":7}]},{"primitives":[{"mode":4,"attributes":{"POSITION":34,"NORMAL":35,"TEXCOORD_0":36},"indices":37,"material":8},{"mode":4,"attributes":{"POSITION":34,"NORMAL":35,"TEXCOORD_0":36},"indices":38,"material":9}]},{"primitives":[{"mode":4,"attributes":{"POSITION":39,"NORMAL":40,"TEXCOORD_0":41},"indices":42,"material":8}]}]}