{"asset":{"version":"2.0","generator":"Blockbench 4.11.1 glTF exporter"},"scenes":[{"nodes":[10],"name":"blockbench_export"}],"scene":0,"nodes":[{"rotation":[0.5913096483635824,0,0,0.8064446042674827],"translation":[0.06149636927727542,0.2907679788799906,0.4730739759248517],"name":"Corpo","mesh":0},{"translation":[0.4375,-2.682459677419355,0.21471774193548376],"name":"Pe3","mesh":1},{"translation":[-0.25,-2.682459677419355,0.21471774193548376],"name":"Pe4","mesh":2},{"translation":[-0.00100363072272458,1.1970179788799906,-0.12067602407514832],"name":"Pe2","children":[1,2]},{"rotation":[-0.10583923678549047,0.993490450245468,0.04189110741626161,0.004462773483067358],"translation":[1.0770458449613907,-1.552409178388006,0],"name":"Braco3","mesh":3},{"rotation":[0,0,-0.10452846326765346,0.9945218953682733],"translation":[-0.9229541550386093,-1.552409178388006,0],"name":"Braco4","mesh":4},{"translation":[-0.00100363072272458,1.1970179788799906,-0.12067602407514832],"name":"Braco2","children":[4,5]},{"rotation":[0,0.21643961393810288,0,0.9762960071199334],"translation":[0.0625,-0.0625,0],"name":"Cabeca","mesh":5},{"translation":[-0.00100363072272458,1.1970179788799906,-0.12067602407514832],"name":"Cabeca","children":[7]},{"translation":[-0.4364963692772754,-1.1970179788799906,-0.06682397592485168],"name":"Enty","children":[0,3,6,8]},{"children":[9]}],"bufferViews":[{"buffer":0,"byteOffset":0,"byteLength":6912,"target":34962,"byteStride":12},{"buffer":0,"byteOffset":6912,"byteLength":6912,"target":34962,"byteStride":12},{"buffer":0,"byteOffset":13824,"byteLength":4608,"target":34962,"byteStride":8},{"buffer":0,"byteOffset":18432,"byteLength":24,"target":34963},{"buffer":0,"byteOffset":18456,"byteLength":1692,"target":34963},{"buffer":0,"byteOffset":20148,"byteLength":2880,"target":34962,"byteStride":12},{"buffer":0,"byteOffset":23028,"byteLength":2880,"target":34962,"byteStride":12},{"buffer":0,"byteOffset":25908,"byteLength":1920,"target":34962,"byteStride":8},{"buffer":0,"byteOffset":27828,"byteLength":720,"target":34963},{"buffer":0,"byteOffset":28548,"byteLength":2880,"target":34962,"byteStride":12},{"buffer":0,"byteOffset":31428,"byteLength":2880,"target":34962,"byteStride":12},{"buffer":0,"byteOffset":34308,"byteLength":1920,"target":34962,"byteStride":8},{"buffer":0,"byteOffset":36228,"byteLength":720,"target":34963},{"buffer":0,"byteOffset":36948,"byteLength":3600,"target":34962,"byteStride":12},{"buffer":0,"byteOffset":40548,"byteLength":3600,"target":34962,"byteStride":12},{"buffer":0,"byteOffset":44148,"byteLength":2400,"target":34962,"byteStride":8},{"buffer":0,"byteOffset":46548,"byteLength":840,"target":34963},{"buffer":0,"byteOffset":47388,"byteLength":3600,"target":34962,"byteStride":12},{"buffer":0,"byteOffset":50988,"byteLength":3600,"target":34962,"byteStride":12},{"buffer":0,"byteOffset":54588,"byteLength":2400,"target":34962,"byteStride":8},{"buffer":0,"byteOffset":56988,"byteLength":840,"target":34963},{"buffer":0,"byteOffset":57828,"byteLength":10056,"target":34962,"byteStride":12},{"buffer":0,"byteOffset":67884,"byteLength":10056,"target":34962,"byteStride":12},{"buffer":0,"byteOffset":77940,"byteLength":6704,"target":34962,"byteStride":8},{"buffer":0,"byteOffset":84644,"byteLength":2304,"target":34963}],"buffers":[{"byteLength":86948,"uri":"data:application/octet-stream;base64,"}],"accessors":[{"bufferView":0,"componentType":5126,"count":576,"max":[0.9897886514663696,0.015569140203297138,0.8989471197128296],"min":[-0.9885015487670898,-1.2968484163284302,-0.5848756432533264],"type":"VEC3"},{"bufferView":1,"componentType":5126,"count":576,"max":[0.9681151509284973,0.9997887015342712,0.9982337951660156],"min":[-0.9681700468063354,-0.990953803062439,-0.9944911003112793],"type":"VEC3"},{"bufferView":2,"componentType":5126,"count":576,"max":[1,0.9375],"min":[0,0],"type":"VEC2"},{"bufferView":3,"componentType":5123,"count":12,"max":[7],"min":[0],"type":"SCALAR"},{"bufferView":4,"componentType":5123,"count":846,"max":[575],"min":[8],"type":"SCALAR"},{"bufferView":5,"componentType":5126,"count":240,"max":[0.25,0.6199596524238586,0.5977822542190552],"min":[-0.25,-0.31754031777381897,-0.4022177457809448],"type":"VEC3"},{"bufferView":6,"componentType":5126,"count":240,"max":[1,1,0.9965457320213318],"min":[-1,-1,-0.9965457320213318],"type":"VEC3"},{"bufferView":7,"componentType":5126,"count":240,"max":[0.5339903831481934,0.5027403831481934],"min":[0,0],"type":"VEC2"},{"bufferView":8,"componentType":5123,"count":360,"max":[239],"min":[0],"type":"SCALAR"},{"bufferView":9,"componentType":5126,"count":240,"max":[0.25,0.6199596524238586,0.5977822542190552],"min":[-0.25,-0.31754031777381897,-0.4022177457809448],"type":"VEC3"},{"bufferView":10,"componentType":5126,"count":240,"max":[1,1,0.9965457320213318],"min":[-1,-1,-0.9965457320213318],"type":"VEC3"},{"bufferView":11,"componentType":5126,"count":240,"max":[0.5339903831481934,0.5027403831481934],"min":[0,0],"type":"VEC2"},{"bufferView":12,"componentType":5123,"count":360,"max":[239],"min":[0],"type":"SCALAR"},{"bufferView":13,"componentType":5126,"count":300,"max":[0.26136937737464905,0.46753859519958496,0.16302825510501862],"min":[-0.18899893760681152,-0.44779902696609497,-0.16302825510501862],"type":"VEC3"},{"bufferView":14,"componentType":5126,"count":300,"max":[0.9295380115509033,0.9796621799468994,1],"min":[-0.9594405293464661,-0.9505736231803894,-1],"type":"VEC3"},{"bufferView":15,"componentType":5126,"count":300,"max":[0.8139601945877075,0.8033655881881714],"min":[0,0],"type":"VEC2"},{"bufferView":16,"componentType":5123,"count":420,"max":[299],"min":[0],"type":"SCALAR"},{"bufferView":17,"componentType":5126,"count":300,"max":[0.26136937737464905,0.46753859519958496,0.16302825510501862],"min":[-0.18899893760681152,-0.44779902696609497,-0.16302825510501862],"type":"VEC3"},{"bufferView":18,"componentType":5126,"count":300,"max":[0.9295380115509033,0.9796621799468994,1],"min":[-0.9594405293464661,-0.9505736231803894,-1],"type":"VEC3"},{"bufferView":19,"componentType":5126,"count":300,"max":[0.8139601945877075,0.8033655881881714],"min":[0,0],"type":"VEC2"},{"bufferView":20,"componentType":5123,"count":420,"max":[299],"min":[0],"type":"SCALAR"},{"bufferView":21,"componentType":5126,"count":838,"max":[1.0294805765151978,2,1.0652676820755005],"min":[-1.1884706020355225,-0.375,-1.121911883354187],"type":"VEC3"},{"bufferView":22,"componentType":5126,"count":838,"max":[0.9999958276748657,1,0.9974463582038879],"min":[-0.975428581237793,-0.9957869052886963,-0.9979302883148193],"type":"VEC3"},{"bufferView":23,"componentType":5126,"count":838,"max":[0.9196091890335083,0.890625],"min":[0,0],"type":"VEC2"},{"bufferView":24,"componentType":5123,"count":1152,"max":[837],"min":[0],"type":"SCALAR"}],"materials":[{"pbrMetallicRoughness":{"metallicFactor":0,"roughnessFactor":1,"baseColorTexture":{"index":0}},"alphaMode":"MASK","alphaCutoff":0.05,"doubleSided":true},{"pbrMetallicRoughness":{"metallicFactor":0,"roughnessFactor":1,"baseColorTexture":{"index":1}},"alphaMode":"MASK","alphaCutoff":0.05,"doubleSided":true},{"pbrMetallicRoughness":{"metallicFactor":0,"roughnessFactor":1,"baseColorTexture":{"index":2}},"alphaMode":"MASK","alphaCutoff":0.05,"doubleSided":true},{"pbrMetallicRoughness":{"metallicFactor":0,"roughnessFactor":1,"baseColorTexture":{"index":3}},"alphaMode":"MASK","alphaCutoff":0.05,"doubleSided":true},{"pbrMetallicRoughness":{"metallicFactor":0,"roughnessFactor":1,"baseColorTexture":{"index":4}},"alphaMode":"MASK","alphaCutoff":0.05,"doubleSided":true}],"textures":[{"sampler":0,"source":0,"name":"Gravata"},{"sampler":1,"source":1,"name":"Camisa"},{"sampler":2,"source":2,"name":"Perna"},{"sampler":3,"source":3,"name":"Mao"},{"sampler":4,"source":4,"name":"Cabeca"}],"samplers":[{"magFilter":9728,"minFilter":9728,"wrapS":33071,"wrapT":33071},{"magFilter":9728,"minFilter":9728,"wrapS":33071,"wrapT":33071},{"magFilter":9728,"minFilter":9728,"wrapS":33071,"wrapT":33071},{"magFilter":9728,"minFilter":9728,"wrapS":33071,"wrapT":33071},{"magFilter":9728,"minFilter":9728,"wrapS":33071,"wrapT":33071}],"images":[{"mimeType":"image/png","uri":"data:image/png;base64,"},{"mimeType":"image/png","uri":"data:image/png;base64,"},{"mimeType":"image/png","uri":"data:image/png;base64,"},{"mimeType":"image/png","uri":"data:image/png;base64,"},{"mimeType":"image/png","uri":"data:image/png;base64,"}],"meshes":[{"primitives":[{"mode":4,"attributes":{"POSITION":0,"NORMAL":1,"TEXCOORD_0":2},"indices":3,"material":0},{"mode":4,"attributes":{"POSITION":0,"NORMAL":1,"TEXCOORD_0":2},"indices":4,"material":1}]},{"primitives":[{"mode":4,"attributes":{"POSITION":5,"NORMAL":6,"TEXCOORD_0":7},"indices":8,"material":2}]},{"primitives":[{"mode":4,"attributes":{"POSITION":9,"NORMAL":10,"TEXCOORD_0":11},"indices":12,"material":2}]},{"primitives":[{"mode":4,"attributes":{"POSITION":13,"NORMAL":14,"TEXCOORD_0":15},"indices":16,"material":3}]},{"primitives":[{"mode":4,"attributes":{"POSITION":17,"NORMAL":18,"TEXCOORD_0":19},"indices":20,"material":3}]},{"primitives":[{"mode":4,"attributes":{"POSITION":21,"NORMAL":22,"TEXCOORD_0":23},"indices":24,"material":4}]}]}